# xmcd CD database file
#
# Track frame offsets:
#	182
#	19562
#	35942
#	66417
#	79595
#	105482
#	124270
#	167662
#	181932
#
# Disc length: 2801 seconds
#
# Revision: 2
# Processed by: cddbd v1.5.2PL0 Copyright (c) Steve Scherf et al.
# Submitted via: CDex 1.51
#
DISCID=710aef09
DTITLE=Variuos - Il Pop progressivo 1
DYEAR=1991
DGENRE=Progressive Rock
TTITLE0=PFM - Impressioni di settembre
TTITLE1=Banco - 1000 poesie
TTITLE2=Trip - Caronte 1
TTITLE3=Il Balletto di bronzo - Neve calda
TTITLE4=PFM - Dove Quando (p1)
TTITLE5=Formula 3 - Sole giallo sole nero
TTITLE6=Il Balletto di bronzo - missione sirio 2222
TTITLE7=Flora fauna e cemento - Un papavero
TTITLE8=Quella vecchia locanda - Il tempio della gioia
EXTD=YEAR: 1991
EXTT0=
EXTT1=
EXTT2=
EXTT3=
EXTT4=
EXTT5=
EXTT6=
EXTT7=
EXTT8=
PLAYORDER=
